/* XPM */
static char * amule_xpm[] = {
"32 32 465 2",
"  	c None",
". 	c #EBD4C2",
"+ 	c #CEAA90",
"@ 	c #D27A31",
"# 	c #AB8C6A",
"$ 	c #B86E39",
"% 	c #AC7033",
"& 	c #D4C7BE",
"* 	c #AB632B",
"= 	c #E4A169",
"- 	c #9A6538",
"; 	c #FFFFFF",
"> 	c #BEAD9E",
", 	c #E7E2E1",
"' 	c #8D4D1C",
") 	c #D38F54",
"! 	c #AD6730",
"~ 	c #B7A088",
"{ 	c #7A4425",
"] 	c #714825",
"^ 	c #AE8E66",
"/ 	c #E1E9F0",
"( 	c #9A7050",
"_ 	c #AC6429",
": 	c #E7A472",
"< 	c #935018",
"[ 	c #E1E7EC",
"} 	c #BCB4AD",
"| 	c #6A3419",
"1 	c #654121",
"2 	c #985E34",
"3 	c #AF907C",
"4 	c #ECE5DB",
"5 	c #DDE3EA",
"6 	c #904F16",
"7 	c #D89961",
"8 	c #C28852",
"9 	c #84470D",
"0 	c #FCFEFF",
"a 	c #947261",
"b 	c #613D27",
"c 	c #724929",
"d 	c #884F25",
"e 	c #986632",
"f 	c #D3BFA9",
"g 	c #C0BEBF",
"h 	c #9C500E",
"i 	c #EDB67B",
"j 	c #BA723A",
"k 	c #865328",
"l 	c #4F3122",
"m 	c #533021",
"n 	c #704529",
"o 	c #946534",
"p 	c #C7976C",
"q 	c #B3997E",
"r 	c #BEC2C5",
"s 	c #BDC0B7",
"t 	c #B4BAB3",
"u 	c #9F5318",
"v 	c #EBAF77",
"w 	c #B86525",
"x 	c #AAA292",
"y 	c #E1DDDB",
"z 	c #51382F",
"A 	c #412A22",
"B 	c #664223",
"C 	c #A86D38",
"D 	c #DBC7AE",
"E 	c #A9ACA6",
"F 	c #56402E",
"G 	c #7D726E",
"H 	c #89521E",
"I 	c #EBAF79",
"J 	c #9C5016",
"K 	c #B6B7BE",
"L 	c #D8D9D9",
"M 	c #57504B",
"N 	c #191A17",
"O 	c #673E22",
"P 	c #55321D",
"Q 	c #814E24",
"R 	c #935C2E",
"S 	c #A5662E",
"T 	c #D29E72",
"U 	c #E2C4A6",
"V 	c #844D13",
"W 	c #A3A9AC",
"X 	c #CACCCE",
"Y 	c #B7B4B5",
"Z 	c #595F62",
"` 	c #603821",
" .	c #94612D",
"..	c #B0723E",
"+.	c #B4753F",
"@.	c #B9763C",
"#.	c #BD7835",
"$.	c #B16F32",
"%.	c #AB6A2A",
"&.	c #A98153",
"*.	c #988B85",
"=.	c #94591F",
"-.	c #B26D39",
";.	c #C68147",
">.	c #CE8348",
",.	c #CB8A48",
"'.	c #DD8D44",
").	c #F1E3D6",
"!.	c #F2E3D6",
"~.	c #C87D3D",
"{.	c #B0AAA6",
"].	c #C18345",
"^.	c #F8AD6B",
"/.	c #E49A52",
"(.	c #DC9157",
"_.	c #F6BF87",
":.	c #FFE3B9",
"<.	c #ECECED",
"[.	c #A6A3A4",
"}.	c #D8DCE0",
"|.	c #F5CCA7",
"1.	c #E29051",
"2.	c #0C0C09",
"3.	c #C2B4A5",
"4.	c #98999B",
"5.	c #FFF6EB",
"6.	c #333435",
"7.	c #976032",
"8.	c #C1916D",
"9.	c #D3B79B",
"0.	c #9A9A9B",
"a.	c #E6D5B9",
"b.	c #ECECEC",
"c.	c #DFE1E2",
"d.	c #D8DBDE",
"e.	c #DFDADF",
"f.	c #DDDFE2",
"g.	c #E5E5E4",
"h.	c #D4D5D6",
"i.	c #BFBFBE",
"j.	c #B2B3B4",
"k.	c #989694",
"l.	c #D2D2CD",
"m.	c #C8C9CA",
"n.	c #A8A9A9",
"o.	c #A8A8A8",
"p.	c #D1D1D1",
"q.	c #CACACF",
"r.	c #D0D0D5",
"s.	c #CBCCCB",
"t.	c #CBC7C7",
"u.	c #292824",
"v.	c #F6F2F2",
"w.	c #CBC6C6",
"x.	c #E9E9EA",
"y.	c #54504D",
"z.	c #A3A3A4",
"A.	c #AFB0B0",
"B.	c #ABA3A3",
"C.	c #A5A5A5",
"D.	c #A1A1A1",
"E.	c #A6A6A5",
"F.	c #A2A2A2",
"G.	c #B9AEAE",
"H.	c #2E2B28",
"I.	c #DAD8D8",
"J.	c #EEECEC",
"K.	c #868787",
"L.	c #7C7874",
"M.	c #EAEAE2",
"N.	c #6D6E6C",
"O.	c #433B34",
"P.	c #B6B4B5",
"Q.	c #A6A6A4",
"R.	c #ACACAC",
"S.	c #A4A4A4",
"T.	c #A6A4A4",
"U.	c #A6A7A7",
"V.	c #9C9D9B",
"W.	c #8B8B8A",
"X.	c #C1C2C2",
"Y.	c #D2D2D3",
"Z.	c #807B77",
"`.	c #8D8B8E",
" +	c #D9DADC",
".+	c #C8C9C2",
"++	c #808181",
"@+	c #7C7576",
"#+	c #A1A29B",
"$+	c #989898",
"%+	c #9F9999",
"&+	c #9B9B9B",
"*+	c #71716B",
"=+	c #B9B9B3",
"-+	c #BFC2C4",
";+	c #6A6E72",
">+	c #736C67",
",+	c #B5ACB0",
"'+	c #B8C3BF",
")+	c #FAA152",
"!+	c #F09145",
"~+	c #B27542",
"{+	c #C6CED4",
"]+	c #AEB0B1",
"^+	c #B6B7B7",
"/+	c #848484",
"(+	c #8F8F8F",
"_+	c #8F9090",
":+	c #808080",
"<+	c #8C8D8D",
"[+	c #B4AEB0",
"}+	c #A7ADB1",
"|+	c #B9A496",
"1+	c #9C663C",
"2+	c #B58145",
"3+	c #C68C59",
"4+	c #9D9696",
"5+	c #979A9D",
"6+	c #B6B6AE",
"7+	c #9B9C9B",
"8+	c #B0B3B6",
"9+	c #A47042",
"0+	c #E6954C",
"a+	c #DB8F4B",
"b+	c #C8762C",
"c+	c #BE916E",
"d+	c #A09E9D",
"e+	c #B0AFAF",
"f+	c #B2ACAF",
"g+	c #7F8081",
"h+	c #848587",
"i+	c #848485",
"j+	c #81897F",
"k+	c #887B7B",
"l+	c #978F91",
"m+	c #94603A",
"n+	c #98602D",
"o+	c #BF712C",
"p+	c #DA8642",
"q+	c #E59851",
"r+	c #B77238",
"s+	c #AFB4BA",
"t+	c #B6B7B6",
"u+	c #E3E3E3",
"v+	c #6E6C6A",
"w+	c #C1C4C6",
"x+	c #B5B9BC",
"y+	c #CB813F",
"z+	c #DF934A",
"A+	c #C98446",
"B+	c #B36929",
"C+	c #8D5A25",
"D+	c #A17D5A",
"E+	c #AF9B8C",
"F+	c #887863",
"G+	c #7F7263",
"H+	c #83705F",
"I+	c #846E5D",
"J+	c #9E8F78",
"K+	c #D42634",
"L+	c #D34145",
"M+	c #F8A5A6",
"N+	c #9C5F29",
"O+	c #CE7C33",
"P+	c #DC8F4B",
"Q+	c #DB954F",
"R+	c #9D7A5E",
"S+	c #BDBABE",
"T+	c #CCCDCD",
"U+	c #65605B",
"V+	c #919293",
"W+	c #8A8C8C",
"X+	c #897264",
"Y+	c #EA9B4B",
"Z+	c #DE8C48",
"`+	c #C57930",
" @	c #7C502A",
".@	c #945B28",
"+@	c #AB6F3C",
"@@	c #B37336",
"#@	c #AD7232",
"$@	c #B77D3D",
"%@	c #BE7A41",
"&@	c #D28D4B",
"*@	c #E1274C",
"=@	c #EA616B",
"-@	c #F1949C",
";@	c #A56F35",
">@	c #826247",
",@	c #E59547",
"'@	c #927861",
")@	c #767D82",
"!@	c #888684",
"~@	c #A0A1A1",
"{@	c #5D5555",
"]@	c #65615E",
"^@	c #5A5253",
"/@	c #4C4D4D",
"(@	c #574E44",
"_@	c #D3CFCC",
":@	c #4E4E4E",
"<@	c #8A5725",
"[@	c #9C6230",
"}@	c #BE7C43",
"|@	c #C9844A",
"1@	c #CF8C49",
"2@	c #DF9552",
"3@	c #E09D5B",
"4@	c #DFA15B",
"5@	c #DE8D50",
"6@	c #E0354F",
"7@	c #E4485C",
"8@	c #C2813D",
"9@	c #424649",
"0@	c #E4E0E3",
"a@	c #5D6061",
"b@	c #535353",
"c@	c #5E5B57",
"d@	c #706A6A",
"e@	c #656060",
"f@	c #5F5F64",
"g@	c #735339",
"h@	c #664B3C",
"i@	c #634C3C",
"j@	c #574739",
"k@	c #563F35",
"l@	c #493837",
"m@	c #935E2F",
"n@	c #A56B3A",
"o@	c #BF7C42",
"p@	c #C8844A",
"q@	c #D78B53",
"r@	c #DF9E5B",
"s@	c #EAA76A",
"t@	c #DDA770",
"u@	c #DEA05A",
"v@	c #E19B52",
"w@	c #C68849",
"x@	c #C38041",
"y@	c #865C34",
"z@	c #C0ACA4",
"A@	c #C5B5A4",
"B@	c #CAB7A4",
"C@	c #D7C2AB",
"D@	c #DCC3AE",
"E@	c #CBC9CE",
"F@	c #D0D1D2",
"G@	c #E0E0E0",
"H@	c #504E49",
"I@	c #B3B4B5",
"J@	c #A8ABAE",
"K@	c #8C6F59",
"L@	c #E58A38",
"M@	c #C0722F",
"N@	c #AA6E30",
"O@	c #946631",
"P@	c #87552D",
"Q@	c #754628",
"R@	c #92602B",
"S@	c #A66534",
"T@	c #C07D3C",
"U@	c #C78545",
"V@	c #D88C4D",
"W@	c #DF9855",
"X@	c #E3A161",
"Y@	c #E5A16A",
"Z@	c #DF985A",
"`@	c #DC9053",
" #	c #C8844B",
".#	c #C37E43",
"+#	c #956132",
"@#	c #85522B",
"##	c #A26527",
"$#	c #C4762D",
"%#	c #D98A3F",
"&#	c #E49046",
"*#	c #937054",
"=#	c #9B9FA3",
"-#	c #ABACAC",
";#	c #6D6565",
">#	c #43433E",
",#	c #6C6764",
"'#	c #CBCEC8",
")#	c #AAA9A0",
"!#	c #D0843C",
"~#	c #BF732E",
"{#	c #AC6A31",
"]#	c #936331",
"^#	c #8B5A2A",
"/#	c #794D2B",
"(#	c #7A4F2A",
"_#	c #9E6230",
":#	c #BB7B44",
"<#	c #C88642",
"[#	c #D1854A",
"}#	c #D98D4A",
"|#	c #DF9654",
"1#	c #E29756",
"2#	c #D88D4B",
"3#	c #D18E4B",
"4#	c #C07D43",
"5#	c #BA763B",
"6#	c #805827",
"7#	c #8F5B29",
"8#	c #B46C32",
"9#	c #CF8437",
"0#	c #D98D4B",
"a#	c #DF9851",
"b#	c #9D6530",
"c#	c #C2C7CB",
"d#	c #6B6B6C",
"e#	c #454440",
"f#	c #615B5B",
"g#	c #AAABAB",
"h#	c #989899",
"i#	c #908E94",
"j#	c #AD784B",
"k#	c #D68032",
"l#	c #AF6D32",
"m#	c #A36630",
"n#	c #905F31",
"o#	c #834D2A",
"p#	c #613C2D",
"q#	c #794927",
"r#	c #8C5E36",
"s#	c #A26C41",
"t#	c #C07C42",
"u#	c #CB8740",
"v#	c #CD864B",
"w#	c #C9854B",
"x#	c #B77A46",
"y#	c #9B6940",
"z#	c #A46A37",
"A#	c #7F5630",
"B#	c #875A2A",
"C#	c #A26731",
"D#	c #C4742E",
"E#	c #CF8B46",
"F#	c #E7924C",
"G#	c #C4864C",
"H#	c #A3A9B0",
"I#	c #B0B2B4",
"J#	c #BABABA",
"K#	c #6B6B65",
"L#	c #777777",
"M#	c #707070",
"N#	c #6F7173",
"O#	c #646462",
"P#	c #7D502A",
"Q#	c #6A4E34",
"R#	c #CCAF94",
"S#	c #AE9372",
"T#	c #754E2F",
"U#	c #825E41",
"V#	c #C88C4E",
"W#	c #7A6E6A",
"X#	c #7A797B",
"Y#	c #7F8080",
"Z#	c #868687",
"`#	c #A7A7A3",
" $	c #8E8E8E",
".$	c #949494",
"+$	c #7E7878",
"@$	c #3E3A38",
"#$	c #3F3A38",
"                                      .                         ",
"                                    + @                         ",
"                                  # $ %                         ",
"                                & * = -                         ",
"      ; >                     , ' ) ! ~                         ",
"        { ] ^ /             ; ( _ : < [                         ",
"        } | 1 2 3 4         5 6 7 8 9 0                         ",
"        ; a b c d e f       g h i j k ;                         ",
"            l m n o p q r s t u v w x                           ",
"            y z A B C D E F G H I J K L                         ",
"              ; M N O P Q R S T U V W X                         ",
"                Y Z `  ...+.@.#.$.%.&.                          ",
"                  *.=.-.;.>.,.'.).!.~.                          ",
"                  {.].  ^./.(._.    :.<.                        ",
"                  [.    }.|.1.; 2.    3.                        ",
"                  4.5.  6.; 7.8.      9.                        ",
"                  0.a.  b.c.d.e.f.g.h.i.j.                      ",
"                  k.l.m.n.o.p.q.r.s.t.u.v.w.                    ",
"                ; x.y.z.A.B.C.D.E.F.G.H.I.J.K.                  ",
"                L.M.N.O.P.Q.R.S.T.U.V.W.X.Y.Z.                  ",
"                `. +.+++@+#+$+$+%+&+*+=+j.-+;+                  ",
"      >+,+'+)+!+~+{+]+^+/+(+(+(+_+:+<+[+}+|+1+2+3+4+5+6+        ",
"      7+8+9+0+a+b+c+d+e+f+g+h+i+i+j+k+l+m+n+o+p+q+r+s+t+u+      ",
"      v+w+x+y+z+A+B+C+D+E+F+G+H+I+J+K+L+M+N+O+P+Q+R+S+T+        ",
"      U+V+W+X+Y+Z+`+ @.@+@@@#@$@%@&@*@=@-@;@>@,@'@)@!@~@        ",
"      {@]@^@/@(@_@:@<@[@}@|@1@2@3@4@5@6@7@8@9@  0@a@b@c@        ",
"  d@e@f@g@h@i@j@k@l@m@n@o@p@q@r@s@t@u@v@w@x@y@z@A@B@C@D@E@F@G@  ",
"H@I@J@K@L@M@N@O@P@Q@R@S@T@U@V@W@X@Y@Z@`@ #.#+#@###$#%#&#*#=#-#;#",
">#,#'#)#!#~#{#]#^#/#(#_#:#<#[#}#|#1#2#3#4#5#6#7#8#9#0#a#b#c#d#e#",
"f#g#h#i#j#k#l#m#n#o#p#q#r#s#t#u#v#w#x#y#z#A#B#C#D#E#F#G#H#I#J#K#",
"  L#M#N#O#P#Q#R#                              S#T#U#V#W#X#Y#Z#`#",
"   $.$                                                  +$@$#$  "};
