/* XPM */
static char * amule_32_xpm[] = {
"32 32 308 2",
"  	c None",
". 	c #D18649",
"+ 	c #B27D52",
"@ 	c #AF6F35",
"# 	c #C8824A",
"$ 	c #AC7444",
"% 	c #9F5E2A",
"& 	c #C07B42",
"* 	c #B59272",
"= 	c #784525",
"- 	c #906B46",
"; 	c #BB743B",
"> 	c #BD7A45",
", 	c #CEC1B7",
"' 	c #A89488",
") 	c #683A1D",
"! 	c #8B562F",
"~ 	c #A4744B",
"{ 	c #D2955D",
"] 	c #A3682F",
"^ 	c #DED0C2",
"/ 	c #7B5844",
"( 	c #6E4628",
"_ 	c #8C5528",
": 	c #B5936D",
"< 	c #A56C3A",
"[ 	c #E0A56B",
"} 	c #A06231",
"| 	c #523022",
"1 	c #794D2C",
"2 	c #AD7E50",
"3 	c #B8987A",
"4 	c #A46D3F",
"5 	c #DE9D63",
"6 	c #B1835B",
"7 	c #4A3022",
"8 	c #87572D",
"9 	c #CEB191",
"0 	c #949188",
"a 	c #6A594E",
"b 	c #865A32",
"c 	c #D79760",
"d 	c #A9846A",
"e 	c #48423E",
"f 	c #402C1C",
"g 	c #59351E",
"h 	c #865127",
"i 	c #9C612E",
"j 	c #C79061",
"k 	c #CAA682",
"l 	c #947B5F",
"m 	c #C0C3C5",
"n 	c #A09EA0",
"o 	c #5C4B41",
"p 	c #87572A",
"q 	c #B1723E",
"r 	c #B7753E",
"s 	c #BC7737",
"t 	c #B06E30",
"u 	c #AA753F",
"v 	c #967252",
"w 	c #C88247",
"x 	c #CC8648",
"y 	c #D98C45",
"z 	c #E09654",
"A 	c #F0B37B",
"B 	c #EBAE7C",
"C 	c #F8E3D4",
"D 	c #666768",
"E 	c #CBB098",
"F 	c #B7855E",
"G 	c #C0B8AA",
"H 	c #E9E9E9",
"I 	c #DCDEE0",
"J 	c #DEDADF",
"K 	c #DFE1E3",
"L 	c #DDDDDD",
"M 	c #C4C4C4",
"N 	c #B5B4B0",
"O 	c #CACBCB",
"P 	c #A8A9A9",
"Q 	c #BDBDBD",
"R 	c #CCCCD0",
"S 	c #CFCFD2",
"T 	c #CBC9C9",
"U 	c #524F4D",
"V 	c #ECE7E7",
"W 	c #9F9D9B",
"X 	c #8F8F8E",
"Y 	c #AEACAC",
"Z 	c #A8A4A4",
"` 	c #A2A2A2",
" .	c #A5A5A5",
"..	c #ADA8A8",
"+.	c #514C49",
"@.	c #DFDDDD",
"#.	c #979490",
"$.	c #ACACA7",
"%.	c #4E4842",
"&.	c #B2B1B1",
"*.	c #A9A9A8",
"=.	c #A6A6A6",
"-.	c #A6A5A5",
";.	c #A1A2A1",
">.	c #8F908E",
",.	c #C5C6C6",
"'.	c #A9A6A5",
").	c #A09FA2",
"!.	c #D0D2CF",
"~.	c #929391",
"{.	c #85807F",
"].	c #9C9D99",
"^.	c #989898",
"/.	c #9E9A9A",
"(.	c #868683",
"_.	c #A7A7A1",
":.	c #B6B7B8",
"<.	c #95989B",
"[.	c #B78B66",
"}.	c #BABFC2",
"|.	c #B4B5B5",
"1.	c #878787",
"2.	c #8F8F8F",
"3.	c #8B8C8C",
"4.	c #868687",
"5.	c #AAA6A7",
"6.	c #ACABAA",
"7.	c #AA8569",
"8.	c #AF7A43",
"9.	c #BC8F68",
"0.	c #9A989A",
"a.	c #AEAFAA",
"b.	c #ADA299",
"c.	c #C58347",
"d.	c #DE914B",
"e.	c #C67D3C",
"f.	c #AF9886",
"g.	c #A6A1A4",
"h.	c #828384",
"i.	c #848485",
"j.	c #838584",
"k.	c #84827D",
"l.	c #938A8C",
"m.	c #956036",
"n.	c #AB682C",
"o.	c #D3813C",
"p.	c #DA8F4B",
"q.	c #B39379",
"r.	c #B4B6B7",
"s.	c #BEC1C3",
"t.	c #C09D7D",
"u.	c #DA8E47",
"v.	c #C47D3E",
"w.	c #A06227",
"x.	c #9C744D",
"y.	c #A59282",
"z.	c #847563",
"A.	c #827060",
"B.	c #8B7664",
"C.	c #B95B56",
"D.	c #D33B41",
"E.	c #E19387",
"F.	c #B56E2E",
"G.	c #D98A45",
"H.	c #CC8E53",
"I.	c #AD9A8E",
"J.	c #C8C8C9",
"K.	c #8F9091",
"L.	c #8A7F78",
"M.	c #D19151",
"N.	c #D78742",
"O.	c #A0652D",
"P.	c #8E5828",
"Q.	c #AD703B",
"R.	c #B07234",
"S.	c #B47A3A",
"T.	c #C37F44",
"U.	c #DA5A4C",
"V.	c #E85263",
"W.	c #DE8B82",
"X.	c #93693E",
"Y.	c #CC8847",
"Z.	c #8B7969",
"`.	c #7F8183",
" +	c #9A9A99",
".+	c #625D5B",
"++	c #534F50",
"@+	c #544D46",
"#+	c #B1AFAC",
"$+	c #6C5239",
"%+	c #985F2D",
"&+	c #C17E45",
"*+	c #CC884A",
"=+	c #DB9350",
"-+	c #E09E5B",
";+	c #DE9755",
">+	c #DF4B4F",
",+	c #DB5654",
"'+	c #826443",
")+	c #C2C0C3",
"!+	c #58595A",
"~+	c #5B5956",
"{+	c #6B6565",
"]+	c #615F63",
"^+	c #70513A",
"/+	c #654C3C",
"(+	c #5A483A",
"_+	c #533D36",
":+	c #6E4B33",
"<+	c #A06837",
"[+	c #C17E44",
"}+	c #D0884F",
"|+	c #DD9959",
"1+	c #E7A76B",
"2+	c #DEA365",
"3+	c #E09C54",
"4+	c #C58647",
"5+	c #A46E3A",
"6+	c #B19888",
"7+	c #C6B6A4",
"8+	c #D0BCA8",
"9+	c #DAC3AD",
"0+	c #CCCBCF",
"a+	c #D8D9D9",
"b+	c #696864",
"c+	c #AEB0B1",
"d+	c #937E6E",
"e+	c #DC8436",
"f+	c #B57030",
"g+	c #9A6830",
"h+	c #82512C",
"i+	c #83532A",
"j+	c #A16332",
"k+	c #C17F3E",
"l+	c #CF8849",
"m+	c #DD9553",
"n+	c #E4A163",
"o+	c #E29D62",
"p+	c #DD9254",
"q+	c #C68249",
"r+	c #AC6F3A",
"s+	c #89562C",
"t+	c #AA6929",
"u+	c #CE8036",
"v+	c #E18E44",
"w+	c #957C67",
"x+	c #A3A5A8",
"y+	c #7D7777",
"z+	c #4D4C47",
"A+	c #9C9B96",
"B+	c #B2B2AA",
"C+	c #CC8038",
"D+	c #B56E30",
"E+	c #996531",
"F+	c #7A4E2A",
"G+	c #955E2F",
"H+	c #BE7E44",
"I+	c #CC8646",
"J+	c #D78B4A",
"K+	c #DD9250",
"L+	c #D38E4B",
"M+	c #BF7B41",
"N+	c #9D6731",
"O+	c #8C5A29",
"P+	c #BB7233",
"Q+	c #D48941",
"R+	c #DD954F",
"S+	c #A67E57",
"T+	c #96999C",
"U+	c #4F4E4B",
"V+	c #736F6F",
"W+	c #A1A1A2",
"X+	c #929095",
"Y+	c #B87A45",
"Z+	c #C37632",
"`+	c #A66830",
" @	c #8D5A30",
".@	c #72442C",
"+@	c #734629",
"@@	c #926139",
"#@	c #B17442",
"$@	c #C88441",
"%@	c #CC864B",
"&@	c #C08049",
"*@	c #A26D42",
"=@	c #9B6535",
"-@	c #83582D",
";@	c #9C6430",
">@	c #C77A34",
",@	c #DB8F49",
"'@	c #CD894C",
")@	c #A6ABB1",
"!@	c #B5B6B7",
"~@	c #7F7F7B",
"{@	c #747474",
"]@	c #6F7172",
"^@	c #6A5F54",
"/@	c #734F2F",
"(@	c #B4977C",
"_@	c #795234",
":@	c #A57547",
"<@	c #8E7563",
"[@	c #7B7A7C",
"}@	c #828383",
"|@	c #9F9F9C",
"1@	c #919191",
"2@	c #6E6968",
"3@	c #3E3A38",
"                                                                ",
"                                    .                           ",
"                                  + @                           ",
"                                  # $                           ",
"                                % & *                           ",
"              = -               ; > ,                           ",
"              ' ) !           ~ { ] ^                           ",
"                / ( _ :       < [ }                             ",
"                  | 1 2 3     4 5 6                             ",
"                    7 8 9 0 a b c d                             ",
"                    e f g h i j k l m                           ",
"                    n o p q r s t u                             ",
"                      v   w x y                                 ",
"                            z A                                 ",
"                            B C                                 ",
"                          D E F                                 ",
"                      G   H I J K L M                           ",
"                      N O P Q R S T U V                         ",
"                      W X Y Z `  ...+.@.                        ",
"                    #.$.%.&.*.=.-.;.>.,.'.                      ",
"                    ).!.~.{.].^./.(._.:.<.                      ",
"                    [.}.|.1.2.2.3.4.5.6.7.8.9.0.a.              ",
"              b.c.d.e.f.6.g.h.i.j.k.l.m.n.o.p.q.r.              ",
"              s.t.u.v.w.x.y.z.A.B.C.D.E.F.G.H.I.J.              ",
"              K.L.M.N.O.P.Q.R.S.T.U.V.W.X.Y.Z.`. +              ",
"              .+++@+#+$+%+&+*+=+-+;+>+,+'+  )+!+~+              ",
"          {+]+^+/+(+_+:+<+[+}+|+1+2+3+4+5+6+7+8+9+0+a+          ",
"        b+c+d+e+f+g+h+i+j+k+l+m+n+o+p+q+r+s+t+u+v+w+x+y+        ",
"        z+A+B+C+D+E+p F+G+H+I+J+z K+L+M+N+O+P+Q+R+S+T+U+        ",
"        V+W+X+Y+Z+`+ @.@+@@@#@$@%@&@*@=@-@;@>@,@'@)@!@~@        ",
"          {@]@^@/@(@                        _@:@<@[@}@|@        ",
"          1@                                      2@3@          "};
