/* XPM */
static char * amule_xpm[] = {
"32 32 352 2",
"  	c None",
". 	c #B09570",
"+ 	c #B49C76",
"@ 	c #834D04",
"# 	c #CEC3AF",
"$ 	c #A0641F",
"% 	c #86520E",
"& 	c #9F743C",
"* 	c #BA7736",
"= 	c #895E23",
"- 	c #B5A38B",
"; 	c #B5A180",
"> 	c #B7A58A",
", 	c #B77839",
"' 	c #B2712D",
") 	c #9B7B50",
"! 	c #B7A893",
"~ 	c #764503",
"{ 	c #A77E4B",
"] 	c #C8BEAD",
"^ 	c #9C723B",
"/ 	c #D2935F",
"( 	c #A2641C",
"_ 	c #A48B6A",
": 	c #856335",
"< 	c #844F0D",
"[ 	c #AB6D2A",
"} 	c #AD916E",
"| 	c #9C621E",
"1 	c #D39662",
"2 	c #92580F",
"3 	c #A8947A",
"4 	c #B4A997",
"5 	c #6D4206",
"6 	c #A2641D",
"7 	c #BD7E42",
"8 	c #A4835A",
"9 	c #A56723",
"0 	c #C8874D",
"a 	c #824D06",
"b 	c #8B765A",
"c 	c #724304",
"d 	c #B37432",
"e 	c #CDAA83",
"f 	c #A38966",
"g 	c #BAA795",
"h 	c #AD9E8A",
"i 	c #9F621E",
"j 	c #B1702C",
"k 	c #896431",
"l 	c #655135",
"m 	c #7E4B07",
"n 	c #BF8F59",
"o 	c #A46F32",
"p 	c #80571E",
"q 	c #85581D",
"r 	c #8A530D",
"s 	c #8C540C",
"t 	c #968063",
"u 	c #4A3A25",
"v 	c #754401",
"w 	c #864F07",
"x 	c #B4722F",
"y 	c #CC874E",
"z 	c #C78B54",
"A 	c #A8814F",
"B 	c #8B6E46",
"C 	c #525150",
"D 	c #673B00",
"E 	c #A96922",
"F 	c #D08951",
"G 	c #D38C55",
"H 	c #D38C56",
"I 	c #CB8C56",
"J 	c #885818",
"K 	c #7D4901",
"L 	c #AC6C26",
"M 	c #CF8850",
"N 	c #D48F5A",
"O 	c #E6C5A9",
"P 	c #AA8556",
"Q 	c #A38258",
"R 	c #F7F0E9",
"S 	c #E0B490",
"T 	c #E3B794",
"U 	c #FEFEFE",
"V 	c #F9F4F0",
"W 	c #CCC3B9",
"X 	c #FDFDFD",
"Y 	c #D8D3D0",
"Z 	c #D69563",
"` 	c #C8AA94",
" .	c #858585",
"..	c #9F8D77",
"+.	c #BAAEA0",
"@.	c #E9E9E9",
"#.	c #4E4E4E",
"$.	c #E2C4AC",
"%.	c #D7C1AF",
"&.	c #C5C4C3",
"*.	c #FDFCFB",
"=.	c #C09D7D",
"-.	c #B6997B",
";.	c #F8F4F0",
">.	c #EAE8E4",
",.	c #E1DCD4",
"'.	c #E3E1DB",
").	c #DEDEDA",
"!.	c #D6D2CC",
"~.	c #C0B6AC",
"{.	c #979792",
"].	c #C8BCAF",
"^.	c #CDCAC4",
"/.	c #CCCCC9",
"(.	c #D7D7D5",
"_.	c #DCDCDA",
":.	c #D8D8D6",
"<.	c #C2C2C0",
"[.	c #5E6163",
"}.	c #AAACAB",
"|.	c #838380",
"1.	c #767A7C",
"2.	c #9FA0A0",
"3.	c #AFAFAE",
"4.	c #ABABAA",
"5.	c #A7A7A6",
"6.	c #A3A3A3",
"7.	c #575C60",
"8.	c #BEBFBB",
"9.	c #ACACA6",
"0.	c #A5A5A2",
"a.	c #979B9B",
"b.	c #626569",
"c.	c #979899",
"d.	c #939597",
"e.	c #909294",
"f.	c #8D8F92",
"g.	c #898C90",
"h.	c #8C9090",
"i.	c #BFBFB6",
"j.	c #B8B8AE",
"k.	c #ACACA5",
"l.	c #C2C2BA",
"m.	c #878B8B",
"n.	c #7F8489",
"o.	c #7E8388",
"p.	c #7A8085",
"q.	c #777D83",
"r.	c #737A80",
"s.	c #A6A8A1",
"t.	c #A4A6A0",
"u.	c #9A9D98",
"v.	c #535353",
"w.	c #656565",
"x.	c #696969",
"y.	c #755F49",
"z.	c #6B502C",
"A.	c #938976",
"B.	c #ADAEA6",
"C.	c #A8AAA2",
"D.	c #818688",
"E.	c #686F76",
"F.	c #656B72",
"G.	c #5F656A",
"H.	c #5C6065",
"I.	c #84898A",
"J.	c #808689",
"K.	c #776448",
"L.	c #78511B",
"M.	c #93673C",
"N.	c #7C7B7A",
"O.	c #7B7B7B",
"P.	c #A79889",
"Q.	c #BD8048",
"R.	c #9B5E11",
"S.	c #805214",
"T.	c #888882",
"U.	c #848A8B",
"V.	c #6F7376",
"W.	c #525456",
"X.	c #4F5152",
"Y.	c #4D4E4F",
"Z.	c #4C4D4E",
"`.	c #646167",
" +	c #74503E",
".+	c #744301",
"++	c #93570A",
"@+	c #C07C3D",
"#+	c #AB8057",
"$+	c #A6A5A4",
"%+	c #626262",
"&+	c #8C8C8C",
"*+	c #917C66",
"=+	c #BC814D",
"-+	c #A5661D",
";+	c #824C00",
">+	c #6C430B",
",+	c #715A39",
"'+	c #675946",
")+	c #55493A",
"!+	c #5E4E3D",
"~+	c #695138",
"{+	c #7A252C",
"]+	c #B32B3F",
"^+	c #C7494D",
"/+	c #784600",
"(+	c #9B5D11",
"_+	c #BA804C",
":+	c #8F8070",
"<+	c #8F8E8E",
"[+	c #525252",
"}+	c #626567",
"|+	c #666A6E",
"1+	c #837060",
"2+	c #B06F2A",
"3+	c #804D07",
"4+	c #693F06",
"5+	c #804A00",
"6+	c #935607",
"7+	c #A46622",
"8+	c #B27236",
"9+	c #BA7A40",
"0+	c #C84336",
"a+	c #D82C45",
"b+	c #E45B6E",
"c+	c #784708",
"d+	c #8E5A1E",
"e+	c #927053",
"f+	c #5A5F65",
"g+	c #5B6064",
"h+	c #444649",
"i+	c #464B50",
"j+	c #474747",
"k+	c #524434",
"l+	c #302F2C",
"m+	c #673F08",
"n+	c #884F01",
"o+	c #A5651C",
"p+	c #C58144",
"q+	c #D5905B",
"r+	c #D69663",
"s+	c #D6855B",
"t+	c #DA2B3A",
"u+	c #D1584C",
"v+	c #865310",
"w+	c #3A3D40",
"x+	c #383B3E",
"y+	c #404040",
"z+	c #414141",
"A+	c #413E3C",
"B+	c #4C3A28",
"C+	c #4F3614",
"D+	c #4D391B",
"E+	c #473112",
"F+	c #794600",
"G+	c #8E5304",
"H+	c #B06F29",
"I+	c #D08A52",
"J+	c #D79865",
"K+	c #DAA172",
"L+	c #D89D6D",
"M+	c #D5945E",
"N+	c #C38042",
"O+	c #9E6014",
"P+	c #493211",
"Q+	c #4C3310",
"R+	c #483315",
"S+	c #493621",
"T+	c #3F403E",
"U+	c #3B3C39",
"V+	c #818181",
"W+	c #9D9993",
"X+	c #A97D53",
"Y+	c #B2702C",
"Z+	c #935708",
"`+	c #704000",
" @	c #D08B52",
".@	c #D99D6D",
"+@	c #D5925E",
"@@	c #C47F42",
"#@	c #9C5F14",
"$@	c #704100",
"%@	c #7F4A00",
"&@	c #935608",
"*@	c #AF7F53",
"=@	c #9B958D",
"-@	c #888888",
";@	c #5E5E5E",
">@	c #999083",
",@	c #AA7440",
"'@	c #B97635",
")@	c #9A5D10",
"!@	c #844D00",
"~@	c #754300",
"{@	c #724200",
"]@	c #A5661C",
"^@	c #D69662",
"/@	c #D69460",
"(@	c #D08B53",
"_@	c #B77532",
":@	c #854F0A",
"<@	c #844C00",
"[@	c #9A5C0F",
"}@	c #B27741",
"|@	c #9A8D7E",
"1@	c #6F6F6F",
"2@	c #646566",
"3@	c #7E7F80",
"4@	c #7F766F",
"5@	c #B87C46",
"6@	c #A6661E",
"7@	c #8C5202",
"8@	c #7D4800",
"9@	c #925608",
"0@	c #AD6C26",
"a@	c #C27E40",
"b@	c #CB864B",
"c@	c #C98448",
"d@	c #B97735",
"e@	c #925914",
"f@	c #BF7E43",
"g@	c #85776B",
"h@	c #808081",
"i@	c #717172",
"j@	c #3A3D3F",
"k@	c #565B61",
"l@	c #545A60",
"m@	c #8D694C",
"n@	c #8C5925",
"o@	c #633F10",
"p@	c #483112",
"q@	c #3B2C17",
"r@	c #422F17",
"s@	c #553812",
"t@	c #6E471C",
"u@	c #744D23",
"v@	c #5B3C1A",
"w@	c #4C3A24",
"x@	c #3C2D18",
"y@	c #4C3413",
"z@	c #684211",
"A@	c #915C26",
"B@	c #A4734B",
"C@	c #555A61",
"D@	c #575C62",
"E@	c #3F4346",
"F@	c #333738",
"G@	c #363836",
"H@	c #4E4D4C",
"I@	c #404243",
"J@	c #404347",
"K@	c #2B2C2E",
"                                    .                           ",
"                                  + @                           ",
"                                # $ %                           ",
"                                & * =                           ",
"            - ;               > , ' )                           ",
"            ! ~ { ]           ^ / ( _                           ",
"              : < [ }         | 1 2 3                           ",
"              4 5 6 7 8       9 0 a                             ",
"                b c d e f g h i j k                             ",
"                  l m n o p q r s t                             ",
"                    u v w x y z A B                             ",
"                    C D E F G H I J                             ",
"                      K L M G N O P                             ",
"                      Q R S G T U V                             ",
"                      W X Y Z `  .U ..                          ",
"                      +.@.#.$.%.&.*.=.                          ",
"                      -.;.>.,.'.).!.~.{.                        ",
"                      ].^./.(._.:.<.[.}.|.                      ",
"                      1.2.3.4.5.6.2.7.8.9.                      ",
"                    0.a.b.c.d.e.f.g.h.i.j.                      ",
"                    k.l.m.n.o.p.q.r.s.t.u.v.                    ",
"            w.x.y.z.A.B.C.D.E.F.G.H.I.J.K.L.M.N.O.              ",
"            6.P.Q.R.S.T.U.V.W.X.Y.Z.`. +.+++@+#+$+%+            ",
"            &+*+=+-+;+>+,+'+)+!+~+{+]+^+/+(+_+:+<+[+            ",
"            }+|+1+2+3+4+5+6+7+8+9+0+a+b+c+d+e+f+g+              ",
"            h+i+j+k+l+m+n+o+p+q+r+s+t+u+v+    w+x+              ",
"        y+z+A+B+C+D+E+F+G+H+I+J+K+L+M+N+O+P+Q+R+S+  T+U+        ",
"        V+W+X+Y+Z+5+`+/+G+2+ @J+K+.@+@@@#@$@%@&@Y+*@=@-@        ",
"        ;@>@,@'@)@!@~@{@n+]@p+q+^@/@(@_@:@~@<@[@'@}@|@1@        ",
"        2@3@4@5@6@7@8@$@F+9@0@a@b@c@d@e@$@8@7@6@f@g@h@i@        ",
"        j@k@l@m@n@o@p@q@  r@s@t@u@v@w@  x@y@z@A@B@C@D@E@        ",
"          F@G@                                  H@I@J@K@        "};
